<?xml version="1.0" encoding="iso-8859-1"?>
<!-- Generator: Adobe Illustrator 22.1.0, SVG Export Plug-In . SVG Version: 6.00 Build 0)  -->
<svg xmlns="http://www.w3.org/2000/svg" xmlns:xlink="http://www.w3.org/1999/xlink" version="1.1" id="Layer_3" x="0px" y="0px" viewBox="0 0 64 64" style="enable-background:new 0 0 64 64;" xml:space="preserve" width="512" height="512">
<g>
	<path d="M38.763,46.646c0.19-0.225,0.271-0.521,0.223-0.811L38.18,41H44v-2H20v2h5.82l-0.806,4.835   c-0.048,0.29,0.033,0.586,0.223,0.811C25.427,46.871,25.706,47,26,47h6h6C38.294,47,38.573,46.871,38.763,46.646z M27.847,41H31v4   h-3.819L27.847,41z M33,45v-4h3.153l0.666,4H33z"/>
	<path d="M14,31c2.206,0,4-1.794,4-4s-1.794-4-4-4s-4,1.794-4,4S11.794,31,14,31z M14,25c1.103,0,2,0.897,2,2s-0.897,2-2,2   s-2-0.897-2-2S12.897,25,14,25z"/>
	<path d="M46,27c0,2.206,1.794,4,4,4s4-1.794,4-4s-1.794-4-4-4S46,24.794,46,27z M52,27c0,1.103-0.897,2-2,2s-2-0.897-2-2   s0.897-2,2-2S52,25.897,52,27z"/>
	<path d="M58.639,42.831l-3.522-9.687C56.877,31.674,58,29.466,58,27c0-4.411-3.589-8-8-8c-0.167,0-0.331,0.015-0.496,0.025   c-0.874-1.235-1.879-2.344-2.989-3.319l3.266-4.082c0.201-0.251,0.269-0.584,0.182-0.895c-0.087-0.311-0.318-0.56-0.621-0.67   l-0.995-0.362l2.51-4.184c0.153-0.255,0.185-0.564,0.087-0.844c-0.098-0.28-0.315-0.502-0.593-0.607l-8-3   c-0.254-0.095-0.538-0.083-0.782,0.034c-0.245,0.117-0.432,0.329-0.518,0.586l-1.594,4.782L38.342,6.06   c-0.275-0.099-0.578-0.075-0.832,0.068s-0.433,0.39-0.49,0.675l-0.865,4.323C35.444,11.047,34.726,11,34,11h-4   c-0.726,0-1.444,0.047-2.155,0.127L26.98,6.804c-0.057-0.286-0.236-0.532-0.49-0.675c-0.254-0.143-0.558-0.167-0.832-0.068   l-1.115,0.406l-1.594-4.782c-0.086-0.257-0.273-0.469-0.518-0.586c-0.245-0.118-0.528-0.129-0.782-0.034l-8,3   c-0.278,0.104-0.495,0.327-0.593,0.607c-0.098,0.28-0.066,0.589,0.087,0.844l2.51,4.184l-0.995,0.362   c-0.303,0.11-0.534,0.359-0.621,0.67c-0.087,0.31-0.019,0.643,0.182,0.895l3.266,4.082c-1.109,0.974-2.114,2.083-2.988,3.319   C14.331,19.015,14.168,19,14,19c-4.411,0-8,3.589-8,8c0,2.466,1.123,4.674,2.884,6.143l-3.522,9.687C5.122,43.49,5,44.179,5,44.881   v0.822c0,2.403,1.427,4.568,3.636,5.515l3.789,1.624l0.576,9.221C13.035,62.589,13.472,63,14,63h15c0.29,0,0.565-0.126,0.755-0.345   c0.19-0.219,0.275-0.51,0.234-0.797L29.153,56h5.694l-0.837,5.858c-0.041,0.287,0.044,0.578,0.234,0.797   C34.435,62.874,34.71,63,35,63h15c0.528,0,0.965-0.411,0.998-0.938l0.576-9.221l3.789-1.624C57.573,50.271,59,48.106,59,45.703   v-0.822C59,44.179,58.878,43.49,58.639,42.831z M56.759,43.514C56.919,43.954,57,44.414,57,44.881v0.822   c0,0.408-0.063,0.806-0.18,1.183l-4.774-1.591l0.674-10.781c0.227-0.082,0.449-0.174,0.666-0.276L56.759,43.514z M43,61h-4v-2   c0-1.103,0.897-2,2-2s2,0.897,2,2V61z M49,61h-4v-2c0-1.103,0.897-2,2-2s2,0.897,2,2V61z M56,27c0,3.309-2.691,6-6,6s-6-2.691-6-6   s2.691-6,6-6S56,23.691,56,27z M42.621,3.301l5.904,2.214l-2.092,3.487l-5.095-1.853L42.621,3.301z M38.752,8.337l8.596,3.126   l-2.401,3.002c-2.042-1.442-4.355-2.464-6.819-3.008L38.752,8.337z M15.475,5.515l5.904-2.214l1.283,3.849l-5.095,1.853   L15.475,5.515z M16.651,11.463l8.596-3.126l0.624,3.12c-2.464,0.544-4.778,1.566-6.819,3.008L16.651,11.463z M8,27   c0-3.309,2.691-6,6-6s6,2.691,6,6s-2.691,6-6,6S8,30.309,8,27z M25,61h-4v-2c0-1.103,0.897-2,2-2s2,0.897,2,2V61z M19,61h-4v-2   c0-1.103,0.897-2,2-2s2,0.897,2,2V61z M7,44.881c0-0.467,0.081-0.927,0.241-1.367l3.373-9.276c0.217,0.102,0.439,0.194,0.666,0.276   l0.674,10.781L7.18,46.886C7.063,46.509,7,46.112,7,45.703V44.881z M9.424,49.38c-0.431-0.185-0.811-0.446-1.142-0.753l3.8-1.267   l0.203,3.246L9.424,49.38z M36.755,54.345C36.565,54.126,36.29,54,36,54h-8c-0.29,0-0.565,0.126-0.755,0.345   c-0.19,0.219-0.275,0.51-0.234,0.797L27.847,61H27v-2c0-2.206-1.794-4-4-4c-1.2,0-2.266,0.542-3,1.382C19.266,55.542,18.2,55,17,55   c-0.897,0-1.717,0.307-2.385,0.808l-1.303-20.843C13.539,34.985,13.768,35,14,35c4.411,0,8-3.589,8-8   c0-3.476-2.232-6.433-5.336-7.534C19.877,15.392,24.742,13,30,13h4c5.258,0,10.122,2.392,13.335,6.466   C44.232,20.567,42,23.524,42,27c0,4.411,3.589,8,8,8c0.232,0,0.461-0.015,0.688-0.035l-1.303,20.843C48.717,55.307,47.897,55,47,55   c-1.2,0-2.266,0.542-3,1.382C43.266,55.542,42.2,55,41,55c-2.206,0-4,1.794-4,4v2h-0.847l0.837-5.858   C37.031,54.854,36.945,54.564,36.755,54.345z M54.576,49.38l-2.862,1.226l0.203-3.246l3.8,1.267   C55.386,48.934,55.007,49.195,54.576,49.38z"/>
</g>
</svg>
